<svg width="100%" height="100%" viewBox="0 0 104 104" fill="none" xmlns="http://www.w3.org/2000/svg">
<g clip-path="url(#clip0_461_547)">
<path d="M22 22H30.6667V30.6667H22V22ZM39.3333 39.3333H30.6667V30.6667H39.3333V39.3333ZM48 48H39.3333V39.3333H48V48ZM56.6667 48H48V56.6667H39.3333V65.3333H30.6667V74H22V82.6667H30.6667V74H39.3333V65.3333H48V56.6667H56.6667V65.3333H65.3333V74H74V82.6667H82.6667V74H74V65.3333H65.3333V56.6667H56.6667V48ZM65.3333 39.3333V48H56.6667V39.3333H65.3333ZM74 30.6667V39.3333H65.3333V30.6667H74ZM74 30.6667V22H82.6667V30.6667H74Z" fill="black"/>
</g>
<defs>
<clipPath id="clip0_461_547">
<rect width="104" height="104" fill="white" transform="translate(104) rotate(90)"/>
</clipPath>
</defs>
</svg>
