<svg width="100%" height="100%" viewBox="0 0 20 12" fill="none" xmlns="http://www.w3.org/2000/svg">
<path d="M10.5883 11.2558L19.217 2.19965C19.361 2.04854 19.4414 1.84779 19.4414 1.63902C19.4414 1.43026 19.361 1.22951 19.217 1.0784L19.2073 1.06865C19.1374 0.995142 19.0534 0.936611 18.9602 0.896613C18.867 0.856616 18.7667 0.83599 18.6653 0.83599C18.5639 0.83599 18.4636 0.856616 18.3704 0.896613C18.2773 0.936611 18.1932 0.995142 18.1234 1.06865L9.99838 9.59665L1.87663 1.06865C1.8068 0.995141 1.72274 0.936609 1.62958 0.896612C1.53641 0.856614 1.43608 0.835988 1.33469 0.835988C1.2333 0.835988 1.13297 0.856614 1.03981 0.896612C0.946641 0.936609 0.862585 0.995141 0.792754 1.06865L0.783003 1.0784C0.638955 1.2295 0.558597 1.43026 0.558597 1.63902C0.558597 1.84779 0.638955 2.04854 0.783003 2.19965L9.41175 11.2558C9.48763 11.3354 9.5789 11.3988 9.68002 11.4421C9.78113 11.4855 9.89 11.5078 10 11.5078C10.11 11.5078 10.2189 11.4855 10.32 11.4421C10.4211 11.3988 10.5124 11.3354 10.5883 11.2558Z" fill="black"/>
</svg>
