<svg width="100%" height="100%" viewBox="0 0 24 25" fill="none" xmlns="http://www.w3.org/2000/svg">
<path d="M16.95 6.50006C17.2152 6.50006 17.4696 6.60542 17.6571 6.79295C17.8446 6.98049 17.95 7.23484 17.95 7.50006L18 15.5001C18 15.7653 17.8946 16.0196 17.7071 16.2072C17.5196 16.3947 17.2652 16.5001 17 16.5001C16.7348 16.5001 16.4804 16.3947 16.2929 16.2072C16.1054 16.0196 16 15.7653 16 15.5001L16 9.94006L7.71 18.2101C7.61704 18.3038 7.50644 18.3782 7.38458 18.429C7.26272 18.4797 7.13201 18.5059 7 18.5059C6.86799 18.5059 6.73728 18.4797 6.61542 18.429C6.49356 18.3782 6.38296 18.3038 6.29 18.2101C6.19627 18.1171 6.12188 18.0065 6.07111 17.8846C6.02034 17.7628 5.9942 17.6321 5.9942 17.5001C5.9942 17.368 6.02034 17.2373 6.07111 17.1155C6.12188 16.9936 6.19627 16.883 6.29 16.7901L14.58 8.50006L9 8.50006C8.73478 8.50006 8.48043 8.3947 8.29289 8.20717C8.10536 8.01963 8 7.76528 8 7.50006C8 7.23484 8.10536 6.98049 8.29289 6.79295C8.48043 6.60542 8.73478 6.50006 9 6.50006L16.95 6.50006Z" fill="white"/>
</svg>
