<svg width="100%" height="100%" viewBox="0 0 101 100" fill="none" xmlns="http://www.w3.org/2000/svg">
<rect x="1" y="0.5" width="99" height="99" rx="49.5" stroke="black"/>
<path fill-rule="evenodd" clip-rule="evenodd" d="M51.3833 64.2165C51.149 64.4505 50.8313 64.582 50.5 64.582C50.1688 64.582 49.8511 64.4505 49.6167 64.2165L39.6167 54.2165C39.4939 54.102 39.3954 53.964 39.327 53.8107C39.2587 53.6574 39.222 53.4918 39.219 53.324C39.2161 53.1562 39.2469 52.9894 39.3098 52.8338C39.3727 52.6782 39.4662 52.5368 39.5849 52.4181C39.7036 52.2994 39.845 52.2058 40.0007 52.1429C40.1563 52.0801 40.323 52.0492 40.4909 52.0521C40.6587 52.0551 40.8242 52.0918 40.9776 52.1602C41.1309 52.2285 41.2689 52.327 41.3833 52.4498L49.25 60.3165L49.25 36.6665C49.25 36.3349 49.3817 36.017 49.6161 35.7826C49.8505 35.5482 50.1685 35.4165 50.5 35.4165C50.8315 35.4165 51.1495 35.5482 51.3839 35.7826C51.6183 36.017 51.75 36.3349 51.75 36.6665L51.75 60.3165L59.6167 52.4498C59.7311 52.327 59.8691 52.2285 60.0224 52.1602C60.1758 52.0918 60.3413 52.0551 60.5091 52.0521C60.677 52.0492 60.8437 52.0801 60.9993 52.1429C61.155 52.2058 61.2964 52.2994 61.4151 52.4181C61.5338 52.5368 61.6273 52.6782 61.6902 52.8338C61.7531 52.9894 61.784 53.1562 61.781 53.324C61.778 53.4918 61.7413 53.6574 61.673 53.8107C61.6047 53.964 61.5062 54.102 61.3833 54.2165L51.3833 64.2165Z" fill="black"/>
</svg>
